<svg id="Layer_1" enable-background="new 0 0 512 512" height="512" viewBox="0 0 512 512" width="512" xmlns="http://www.w3.org/2000/svg"><path d="m443.988 449.61-33.99 16.27v14.12c0 13.25-10.75 24-24 24h-260c-13.25 0-24-10.75-24-24v-14.12l-33.99-16.27c-28.5-13.64-43.57-45.37-36.12-76.09l15.19-62.65c5.76-23.76 22.73-43.22 45.49-52.16 1.609-.632 87.349-32.629 87.45-32.73l-11.88-9.38c-15.37-12.15-22.24-32.15-17.56-51.18 11.076-45 6.052-24.583 22.79-92.62 9.35-38.05 43.48-64.8 82.66-64.8 39.16 0 73.26 26.7 82.65 64.72 17.693 71.596 12.18 49.285 22.65 91.66 4.67 18.91-2.07 38.81-17.26 51l-12.53 10.05.46.57 87.43 32.71c22.76 8.94 39.73 28.4 45.49 52.16l15.19 62.65c7.45 30.72-7.62 62.45-36.12 76.09z" fill="#535460"/><path d="m248.398 258.25c-5.08 23.258-18.481 41.252-41.51 52.16-27.54 13.08-61.25 14.23-84.38 36.01-17.24 16.24-33.12 48.2-23.33 117.88-.309-.148-36.286-17.32-36.53-17.56-25-14.87-37.73-44.49-30.76-73.22l15.19-62.65c5.76-23.76 22.73-43.22 45.49-52.16 1.609-.632 87.349-32.629 87.45-32.73 15.815 12.491 34.115 29.793 68.38 32.27z" fill="#5f606e"/><path d="m409.998 306v174c0 13.25-10.75 24-24 24h-260c-13.25 0-24-10.75-24-24v-174c0-13.25 10.75-24 24-24h260c13.25 0 24 10.75 24 24z" fill="#fff"/><path d="m409.998 471.67v8.33c0 13.25-10.75 24-24 24h-260c-13.25 0-24-10.75-24-24v-8.33z" fill="#e4e4e4"/><path d="m344.068 215.38c-15.399 12.352-9.351 7.502-26.69 21.4-35.92 28.81-86.98 28.99-123.12.45-17.384-13.733-11.5-9.086-26.12-20.63-15.37-12.15-22.24-32.15-17.56-51.18l8.75-35.55c52.272-56.172 141.37-56.104 193.52.19l8.48 34.32c4.67 18.91-2.07 38.81-17.26 51z" fill="#3e3f47"/><path d="m310.997 372.432c.124 18.367-8.762 34.671-22.508 44.758-1.691 1.241-3.746 1.88-5.843 1.88-57.207-.004-55.585.715-59.123-1.875-13.663-10.004-22.524-26.168-22.524-44.385 0-30.033 24.086-54.453 53.991-54.991 30.409-.547 55.802 24.198 56.007 54.613zm-24.999.568c0-4.42-3.58-8-8-8s-8 3.58-8 8 3.58 8 8 8 8-3.58 8-8zm-44 0c0-4.42-3.58-8-8-8s-8 3.58-8 8 3.58 8 8 8 8-3.58 8-8z" fill="#f97680"/><path d="m241.558 231.06-22.34-16.92c-18.56-14.07-30.13-35.48-31.71-58.72l-3.17-46.5c42.605-27.626 98.863-28.762 143.32 0l-3.17 46.5c-1.58 23.24-13.15 44.65-31.71 58.72l-22.34 16.92c-8.494 6.445-20.329 6.488-28.88 0z" fill="#fff"/><path d="m268.048 8.85c-38.621 16.046-64.058 51.039-68.59 91.64 0 .59-19.961 7.733-40.13 29.38 2.31-9.38 5-20.33 14.04-57.07 10.417-42.39 51.305-70.131 94.68-63.95z" fill="#5f606e"/><path d="m409.998 306v165.67h-30.03c1.486-4.412 1.03 10.522 1.03-189.67h5c13.25 0 24 10.75 24 24z" fill="#f2f2f2"/><path d="m409.998 471.67v8.33c0 13.25-10.75 24-24 24h-260c-11.42 0-20.98-7.98-23.39-18.67h258.39c8.83 0 16.32-5.72 18.97-13.66z" fill="#d9d9d9"/><g fill="#2c2c3d"><path d="m487.882 371.639-15.188-62.653c-6.366-26.265-25.187-47.842-50.343-57.717-2.347-.916 13.374 5.004-60.824-22.761-4.137-1.548-8.748.551-10.296 4.688-1.549 4.138.551 8.748 4.688 10.296l60.645 22.692c20.277 7.983 35.445 25.388 40.581 46.57l15.188 62.653c6.516 26.876-6.859 55.05-31.804 66.991l-22.531 10.786v-147.184c0-17.645-14.355-32-32-32h-260c-17.645 0-32 14.355-32 32v147.186l-22.531-10.786c-24.944-11.941-38.319-40.115-31.804-66.991l15.188-62.653c5.136-21.184 20.304-38.589 40.583-46.57l83.173-31.123c15.063 11.898 37.181 31.45 77.319 31.45 24.074-.089 47.676-8.432 66.457-23.492l26.688-21.4c17.563-14.084 25.422-37.306 20.022-59.159-5.417-21.925-18.276-73.975-22.646-91.663-10.297-41.686-47.477-70.799-90.414-70.799-42.981 0-80.171 29.15-90.438 70.888-3.484 14.164-17.245 70.11-22.782 92.621-5.415 22.013 2.581 45.316 20.369 59.367 1.088.86 8.991-2.489-73.416 28.347-22.736 8.318-43.661 29.707-50.463 57.763l-15.188 62.653c-8.302 34.248 8.443 69.871 40.445 85.192l29.44 14.093v9.076c0 17.645 14.355 32 32 32h260c17.645 0 32-14.355 32-32v-9.076l29.439-14.093c31.783-15.217 48.804-50.71 40.443-85.192zm-231.849-355.639c35.561 0 66.353 24.111 74.882 58.635l7.992 32.351c-49.38-36.196-116.174-36.304-165.692-.091l7.916-32.184c8.504-34.568 39.304-58.711 74.902-58.711zm-.035 192.541c-4.418 0-8 3.582-8 8v9.198c-1.322-.767.43.49-23.948-17.978-16.726-12.672-27.136-31.945-28.562-52.88l-2.839-41.676c39.187-23.238 87.529-23.229 126.697 0l-2.839 41.676c-1.426 20.935-11.837 40.209-28.563 52.88-23.925 18.124-22.614 17.203-23.947 17.978v-9.197c.001-4.419-3.581-8.001-7.999-8.001zm-97.648-41.21 8.236-33.482c3.399-3.534 6.992-6.849 10.757-9.931l2.183 32.05c1.74 25.552 14.447 49.078 34.863 64.546 23.309 17.658 27.535 22.655 39.922 23.303 1.099.236 2.218.249 3.376 0 6.228-.327 12.38-2.438 17.583-6.38l22.339-16.923c20.415-15.467 33.122-38.993 34.863-64.546l2.183-32.049c3.831 3.135 7.484 6.512 10.936 10.115l7.971 32.263c3.91 15.825-1.781 32.641-14.499 42.839l-26.688 21.4c-33.187 26.612-79.719 26.828-113.157.415l-26.118-20.63c-12.882-10.175-18.672-27.05-14.75-42.99zm243.648 312.669c0 8.822-7.178 16-16 16h-260c-8.447 0-16-6.685-16-16.333h261c4.418 0 8-3.582 8-8s-3.582-8-8-8h-261v-157.667c0-8.822 7.178-16 16-16h260c8.822 0 16 7.178 16 16z"/><path d="m287.165 182.954c3.124-3.125 3.124-8.189 0-11.314-3.125-3.123-8.189-3.123-11.314 0l-4.369 4.37h-5.457l-4.369-4.37c-3.123-3.121-8.189-3.123-11.314 0l-4.37 4.37h-5.457l-4.37-4.37c-3.124-3.123-8.19-3.124-11.314.001-3.124 3.124-3.124 8.189 0 11.313 6.935 6.935 8.218 9.056 12.37 9.056 14.937 0 14.714.683 18.797-3.399 4.112 4.116 3.97 3.399 18.797 3.399 4.173 0 5.477-2.162 12.37-9.056z"/><path d="m234.108 140.471c1.105-.586 2.394-.63 3.537-.122 4.039 1.797 8.765-.023 10.56-4.062 4.231-9.52-9.73-16.224-21.962-9.757-1.298.687-2.405.518-3.632.108-4.192-1.398-8.723.866-10.121 5.057-3.152 9.445 10.137 14.824 21.618 8.776z"/><path d="m274.352 140.349c1.463-.65 2.662-.339 3.913.32 4.703 2.491 10.281 3.119 16.188 1.146 4.191-1.399 6.453-5.932 5.054-10.122-1.4-4.191-5.937-6.458-10.122-5.054-1.093.364-2.056.719-4.009-.31-11.151-5.905-25.994.03-21.583 9.957 1.793 4.039 6.521 5.857 10.559 4.063z"/><path d="m240.755 311.67c-4.288 1.065-6.9 5.405-5.834 9.693 1.066 4.287 5.404 6.899 9.693 5.834 50.42-12.527 80.454 54.052 38.688 83.873h-54.605c-16.699-11.908-23.211-32.619-17.894-51.212 1.215-4.248-1.243-8.677-5.491-9.892-4.248-1.214-8.676 1.244-9.892 5.491-6.944 24.275 1.131 51.403 22.577 67.596v9.947c0 4.418 3.582 8 8 8s8-3.582 8-8v-5.93h3v6.119c0 4.418 3.582 8 8 8s8-3.582 8-8v-6.119h5v6.119c0 4.418 3.582 8 8 8s8-3.582 8-8v-6.119h4v5.93c0 4.418 3.582 8 8 8s8-3.582 8-8v-9.943c15.735-11.89 25-30.337 25-50.246.001-40.675-38.309-71.063-78.242-61.141z"/><path d="m217.582 341.455c7.003 0 10.719-8.512 5.802-13.604-3.059-3.167-8.113-3.255-11.295-.214-5.34 5.162-1.562 13.818 5.493 13.818z"/><path d="m255.998 389c-4.275 0-8 3.396-8 8.108 0 4.418 3.582 8 8 8 4.269 0 8-3.391 8-8.108 0-4.418-3.582-8-8-8z"/><path d="m233.998 357c-8.822 0-16 7.178-16 16s7.178 16 16 16 16-7.178 16-16-7.178-16-16-16z"/><path d="m277.998 389c8.822 0 16-7.178 16-16s-7.178-16-16-16-16 7.178-16 16 7.178 16 16 16z"/></g></svg>